<?xml version="1.0" encoding="UTF-8" ?>
<!DOCTYPE svg PUBLIC "-//W3C//DTD SVG 1.1//EN" "http://www.w3.org/Graphics/SVG/1.1/DTD/svg11.dtd">
<svg width="1544pt" height="400pt" viewBox="0 0 1544 400" version="1.1" xmlns="http://www.w3.org/2000/svg">
<g id="#000000ff">
<path fill="#000000" opacity="1.00" d=" M 0.00 0.00 L 200.00 0.00 C 199.96 22.31 200.08 44.63 199.95 66.95 C 155.65 67.11 111.35 66.89 67.05 67.05 C 66.93 178.03 67.04 289.02 67.00 400.00 L 0.00 400.00 L 0.00 0.00 Z" />
<path fill="#000000" opacity="1.00" d=" M 365.48 0.00 L 432.00 0.00 C 432.00 133.33 432.00 266.67 432.00 400.00 L 365.50 400.00 C 365.43 344.35 365.64 288.69 365.39 233.04 C 298.80 232.97 232.20 232.97 165.60 233.04 C 165.37 288.69 165.54 344.35 165.52 400.00 L 99.00 400.00 C 99.09 344.35 98.82 288.67 99.13 233.03 C 120.94 210.53 143.29 188.48 165.31 166.16 C 231.99 165.75 298.70 166.16 365.39 165.96 C 365.63 110.65 365.46 55.32 365.48 0.00 Z" />
<path fill="#000000" opacity="1.00" d=" M 455.48 0.00 L 722.17 0.00 C 699.92 22.18 677.84 44.55 655.70 66.84 C 588.97 67.10 522.21 67.13 455.48 66.82 C 455.50 44.55 455.52 22.27 455.48 0.00 Z" />
<path fill="#000000" opacity="1.00" d=" M 1143.00 0.00 L 1540.50 0.00 C 1495.73 22.11 1450.84 43.98 1406.05 66.05 C 1403.58 67.42 1400.68 66.93 1398.00 67.02 C 1313.02 66.94 1228.03 67.09 1143.05 66.95 C 1142.92 44.63 1143.04 22.32 1143.00 0.00 Z" />
<path fill="#000000" opacity="1.00" d=" M 797.94 400.00 C 864.72 266.81 931.03 133.37 998.00 0.28 C 1042.70 89.04 1087.07 177.99 1131.39 266.95 C 1106.38 266.99 1081.33 267.29 1056.33 266.80 C 1036.84 227.88 1017.72 188.75 998.00 149.94 C 955.66 233.11 914.58 316.94 872.00 400.00 L 797.94 400.00 Z" />
<path fill="#000000" opacity="1.00" d=" M 455.45 167.18 C 544.27 166.79 633.13 167.07 721.96 167.04 C 721.93 189.20 722.21 211.39 721.82 233.55 C 633.06 233.41 544.30 233.58 455.54 233.46 C 455.42 211.37 455.59 189.27 455.45 167.18 Z" />
<path fill="#000000" opacity="1.00" d=" M 455.48 333.17 C 522.21 332.88 588.98 332.90 655.70 333.16 C 677.84 355.45 699.92 377.82 722.17 400.00 L 455.50 400.00 C 455.49 377.72 455.52 355.45 455.48 333.17 Z" />
<path fill="#000000" opacity="1.00" d=" M 1187.14 378.19 C 1218.27 363.53 1248.91 347.76 1280.05 333.15 C 1368.02 332.92 1456.03 332.85 1544.00 333.19 L 1544.00 400.00 L 1123.47 400.00 C 1112.55 377.87 1101.32 355.88 1090.69 333.61 C 1114.79 333.35 1138.91 333.55 1163.02 333.51 C 1164.67 333.16 1165.20 334.97 1165.85 336.08 C 1172.89 350.14 1179.92 364.22 1187.14 378.19 Z" />
</g>
</svg>
