<?xml version="1.0" encoding="UTF-8" ?>
<!DOCTYPE svg PUBLIC "-//W3C//DTD SVG 1.1//EN" "http://www.w3.org/Graphics/SVG/1.1/DTD/svg11.dtd">
<svg width="1544pt" height="400pt" viewBox="0 0 1544 400" version="1.1" xmlns="http://www.w3.org/2000/svg">
<g id="#000000ff">
<path fill="#000000" opacity="1.00" d=" M 0.00 0.00 L 200.00 0.00 C 199.98 22.32 200.05 44.65 199.97 66.97 C 155.66 67.06 111.34 66.94 67.03 67.03 C 66.96 178.02 67.02 289.01 67.00 400.00 L 0.00 400.00 L 0.00 0.00 M 10.02 10.02 C 9.99 136.67 9.98 263.33 10.02 389.98 C 25.67 390.01 41.33 390.01 56.98 389.98 C 57.04 282.97 56.96 175.96 57.02 68.95 C 57.16 65.16 58.32 60.90 61.81 58.85 C 66.13 56.40 71.26 57.06 76.01 57.00 C 114.00 56.99 151.99 57.03 189.98 56.98 C 190.02 41.33 190.01 25.67 189.98 10.02 C 129.99 9.99 70.01 9.98 10.02 10.02 Z" />
<path fill="#000000" opacity="1.00" d=" M 365.80 0.00 L 432.00 0.00 C 432.00 133.33 432.00 266.67 432.00 400.00 L 365.79 400.00 C 365.81 344.36 365.79 288.71 365.80 233.07 C 298.93 232.96 232.06 232.94 165.20 233.08 C 165.20 288.72 165.21 344.36 165.20 400.00 L 99.00 400.00 C 98.99 345.32 99.03 290.64 98.98 235.97 C 99.03 234.59 98.91 233.02 100.13 232.09 C 121.55 210.52 142.93 188.91 164.34 167.33 C 166.29 165.18 169.46 166.21 172.00 165.97 C 236.60 166.00 301.20 166.07 365.79 165.93 C 365.80 110.62 365.79 55.31 365.80 0.00 M 375.34 10.17 C 375.49 61.76 375.44 113.36 375.37 164.95 C 375.74 171.68 369.29 176.22 363.05 175.98 C 299.70 176.01 236.35 176.03 172.99 175.97 C 171.60 176.14 169.85 175.63 168.75 176.74 C 148.94 196.89 128.85 216.79 109.04 236.94 C 108.96 287.95 109.00 338.96 109.02 389.98 C 124.56 389.92 140.12 390.20 155.65 389.84 C 155.50 337.91 155.56 285.98 155.63 234.06 C 155.26 227.32 161.71 222.78 167.96 223.02 C 232.99 222.99 298.02 222.99 363.04 223.02 C 369.29 222.78 375.75 227.31 375.37 234.05 C 375.44 285.98 375.50 337.91 375.34 389.83 C 390.88 390.21 406.43 389.92 421.98 389.98 C 422.01 263.33 422.01 136.67 421.98 10.02 C 406.43 10.08 390.88 9.80 375.34 10.17 Z" />
<path fill="#000000" opacity="1.00" d=" M 455.80 0.00 L 721.71 0.00 C 700.08 21.94 678.31 43.75 656.67 65.67 C 655.75 66.72 654.41 67.12 653.06 67.01 C 587.33 66.96 521.59 67.06 455.85 66.96 C 455.71 44.64 455.84 22.32 455.80 0.00 M 465.35 10.16 C 465.48 25.72 465.48 41.28 465.34 56.84 C 526.22 57.24 587.12 56.85 648.01 57.03 C 649.39 56.86 651.13 57.36 652.25 56.26 C 667.40 40.76 682.84 25.52 698.07 10.08 C 620.50 10.00 542.91 9.84 465.35 10.16 Z" />
<path fill="#000000" opacity="1.00" d=" M 1143.00 0.00 L 1539.82 0.00 C 1495.33 22.23 1450.53 43.84 1405.95 65.88 C 1402.89 67.53 1399.31 66.93 1396.00 67.02 C 1311.68 66.95 1227.35 67.05 1143.03 66.97 C 1142.95 44.65 1143.02 22.32 1143.00 0.00 M 1153.02 10.02 C 1152.98 25.67 1152.98 41.33 1153.02 56.98 C 1233.68 57.03 1314.34 56.97 1394.99 57.01 C 1398.24 56.93 1401.77 57.55 1404.70 55.74 C 1435.48 40.43 1466.50 25.58 1497.23 10.17 C 1382.50 9.79 1267.76 10.08 1153.02 10.02 Z" />
<path fill="#000000" opacity="1.00" d=" M 798.13 400.00 C 864.90 266.99 931.10 133.67 998.00 0.73 C 1042.63 89.35 1086.91 178.17 1131.19 266.98 C 1106.47 266.95 1081.73 267.15 1057.03 266.89 C 1036.70 228.25 1018.10 188.46 998.00 149.62 C 955.46 232.83 914.46 316.85 871.76 400.00 L 798.13 400.00 M 988.33 41.34 C 930.24 157.54 872.13 273.73 814.04 389.94 C 831.36 390.07 848.69 389.98 866.02 389.98 C 907.71 308.44 948.20 226.28 989.57 144.58 C 993.16 138.36 1003.72 138.71 1006.82 145.24 C 1025.43 182.36 1043.90 219.56 1062.30 256.80 C 1079.97 257.32 1097.68 256.97 1115.37 256.97 C 1077.34 180.32 1038.83 103.91 1000.69 27.31 C 999.92 25.67 999.01 24.09 998.00 22.59 C 994.32 28.58 991.63 35.13 988.33 41.34 Z" />
<path fill="#000000" opacity="1.00" d=" M 455.84 167.03 C 544.55 166.98 633.27 166.99 721.98 167.02 C 722.01 189.07 722.02 211.11 721.97 233.16 C 633.27 233.23 544.56 233.24 455.85 233.15 C 455.76 211.11 455.77 189.07 455.84 167.03 M 465.34 177.17 C 465.48 192.66 465.47 208.16 465.35 223.65 C 547.51 223.52 629.68 223.52 711.84 223.66 C 712.20 208.12 711.93 192.56 711.98 177.02 C 629.77 177.08 547.55 176.79 465.34 177.17 Z" />
<path fill="#000000" opacity="1.00" d=" M 455.86 333.04 C 521.59 332.94 587.33 333.04 653.07 332.99 C 654.71 332.75 656.11 333.64 657.18 334.81 C 678.59 356.62 700.27 378.17 721.66 400.00 L 455.79 400.00 C 455.85 377.68 455.71 355.36 455.86 333.04 M 465.34 343.17 C 465.48 358.72 465.48 374.28 465.35 389.83 C 542.91 390.16 620.50 390.00 698.07 389.92 C 682.84 374.48 667.40 359.25 652.26 343.73 C 651.14 342.64 649.39 343.14 648.01 342.97 C 587.12 343.15 526.22 342.76 465.34 343.17 Z" />
<path fill="#000000" opacity="1.00" d=" M 1272.06 337.09 C 1275.60 335.55 1278.91 332.88 1282.97 332.98 C 1369.69 333.05 1456.42 332.93 1543.15 333.04 C 1543.26 355.36 1543.19 377.68 1543.18 400.00 L 1123.72 400.00 C 1112.75 377.96 1101.73 355.95 1090.88 333.85 C 1115.48 333.88 1140.10 333.52 1164.68 334.03 C 1172.04 348.87 1179.44 363.71 1187.03 378.43 C 1215.53 365.00 1243.67 350.78 1272.06 337.09 M 1106.23 343.23 C 1114.09 358.66 1121.70 374.22 1129.30 389.79 C 1264.07 390.17 1398.88 390.08 1533.66 389.84 C 1533.52 374.28 1533.52 358.72 1533.66 343.16 C 1451.12 342.76 1368.55 343.15 1286.00 342.97 C 1283.94 342.96 1281.80 342.88 1279.97 343.94 C 1250.88 358.19 1221.79 372.47 1192.65 386.61 C 1187.51 389.58 1180.57 387.19 1177.96 381.99 C 1171.31 369.22 1164.91 356.31 1158.53 343.40 C 1141.09 343.33 1123.65 343.67 1106.23 343.23 Z" />
</g>
</svg>
