<?xml version="1.0" encoding="UTF-8" ?>
<!DOCTYPE svg PUBLIC "-//W3C//DTD SVG 1.1//EN" "http://www.w3.org/Graphics/SVG/1.1/DTD/svg11.dtd">
<svg width="1544pt" height="400pt" viewBox="0 0 1544 400" version="1.1" xmlns="http://www.w3.org/2000/svg">
<g id="#fffffffe">
<path fill="#ffffff" opacity="1.00" d=" M 0.00 0.00 L 200.00 0.00 C 200.00 22.33 200.00 44.67 200.00 67.00 C 155.67 67.00 111.33 67.00 67.00 67.00 C 67.00 178.00 67.00 289.00 67.00 400.00 L 0.00 400.00 L 0.00 0.00 M 10.00 10.00 C 10.00 136.67 10.00 263.33 10.00 390.00 C 25.67 390.00 41.33 390.00 57.00 390.00 C 57.01 282.98 56.99 175.96 57.01 68.95 C 56.64 62.69 61.45 56.96 67.89 57.08 C 108.59 56.90 149.30 57.05 190.00 57.00 C 190.00 41.33 190.00 25.67 190.00 10.00 C 130.00 10.00 70.00 10.00 10.00 10.00 Z" />
<path fill="#ffffff" opacity="1.00" d=" M 365.79 0.00 L 432.00 0.00 C 432.00 133.33 432.00 266.67 432.00 400.00 L 365.79 400.00 C 365.80 344.34 365.78 288.68 365.80 233.02 C 298.93 232.99 232.07 232.99 165.20 233.02 C 165.22 288.68 165.21 344.34 165.21 400.00 L 99.00 400.00 C 99.01 344.39 98.99 288.78 99.01 233.18 C 120.00 212.12 140.91 190.97 161.82 169.83 C 163.62 168.24 165.15 165.52 167.93 165.98 C 233.89 166.02 299.84 166.01 365.80 165.98 C 365.78 110.66 365.80 55.33 365.79 0.00 M 375.37 10.07 C 375.44 61.69 375.45 113.33 375.37 164.95 C 375.76 171.70 369.29 176.20 363.05 175.99 C 299.70 175.99 236.35 176.03 173.00 175.97 C 171.62 176.14 169.84 175.56 168.80 176.78 C 148.87 196.82 128.91 216.85 109.00 236.92 C 109.00 287.95 109.00 338.97 109.00 390.00 C 124.54 389.96 140.09 390.09 155.63 389.93 C 155.55 337.97 155.56 286.01 155.62 234.05 C 155.25 227.30 161.71 222.79 167.95 223.01 C 232.98 222.99 298.02 222.99 363.05 223.01 C 369.29 222.79 375.76 227.30 375.38 234.05 C 375.44 286.01 375.45 337.97 375.37 389.93 C 390.91 390.09 406.46 389.95 422.00 390.00 C 422.00 263.33 422.00 136.67 422.00 10.00 C 406.46 10.04 390.91 9.91 375.37 10.07 Z" />
<path fill="#ffffff" opacity="1.00" d=" M 455.79 0.00 L 721.83 0.00 C 701.03 20.81 680.36 41.75 659.66 62.66 C 657.69 64.37 656.09 67.45 653.06 67.02 C 587.31 66.97 521.56 67.02 455.80 66.99 C 455.77 44.66 455.80 22.33 455.79 0.00 M 465.37 10.07 C 465.45 25.69 465.44 41.31 465.37 56.93 C 526.25 57.11 587.13 56.92 648.00 57.03 C 649.36 56.85 651.16 57.44 652.19 56.23 C 667.49 40.81 682.84 25.44 698.14 10.03 C 620.55 10.01 542.96 9.93 465.37 10.07 Z" />
<path fill="#ffffff" opacity="1.00" d=" M 1143.00 0.00 L 1540.02 0.00 C 1495.40 22.09 1450.61 43.85 1405.96 65.89 C 1402.91 67.61 1399.31 66.89 1396.00 67.01 C 1311.67 66.99 1227.33 67.01 1143.00 67.00 C 1143.00 44.67 1143.00 22.33 1143.00 0.00 M 1153.00 10.00 C 1153.00 25.67 1153.00 41.33 1153.00 57.00 C 1236.00 56.92 1319.01 57.17 1402.00 56.87 C 1433.89 41.48 1465.68 25.81 1497.43 10.10 C 1382.62 9.87 1267.81 10.06 1153.00 10.00 Z" />
<path fill="#ffffff" opacity="1.00" d=" M 798.19 400.00 C 864.83 266.87 931.27 133.64 998.00 0.55 C 1042.52 89.31 1086.89 178.15 1131.25 267.00 C 1106.41 267.04 1081.58 266.93 1056.74 267.06 C 1037.09 227.86 1017.71 188.52 998.01 149.35 C 955.69 232.78 914.44 316.75 871.76 400.00 L 798.19 400.00 M 814.01 389.97 C 831.36 390.04 848.72 389.98 866.07 390.00 C 906.59 310.39 946.30 230.37 986.46 150.58 C 988.40 147.00 989.74 142.21 994.09 140.86 C 998.89 138.84 1005.19 140.94 1007.20 145.92 C 1025.61 182.88 1044.09 219.81 1062.30 256.86 C 1080.03 257.35 1097.79 256.94 1115.53 257.07 C 1076.34 178.76 1037.28 100.39 998.00 22.14 C 936.56 144.69 875.36 267.37 814.01 389.97 Z" />
<path fill="#ffffff" opacity="1.00" d=" M 455.80 167.01 C 544.53 166.99 633.26 167.00 722.00 167.00 C 722.00 189.07 722.01 211.14 721.99 233.20 C 633.27 233.21 544.54 233.22 455.81 233.20 C 455.77 211.13 455.79 189.07 455.80 167.01 M 465.37 177.07 C 465.40 192.61 465.52 208.15 465.31 223.69 C 547.52 223.48 629.73 223.59 711.93 223.63 C 712.09 208.09 711.96 192.55 712.00 177.00 C 629.79 177.04 547.58 176.91 465.37 177.07 Z" />
<path fill="#ffffff" opacity="1.00" d=" M 455.80 333.01 C 521.90 333.00 588.00 332.98 654.10 333.02 C 655.43 332.84 656.27 334.07 657.18 334.82 C 678.67 356.59 700.22 378.32 721.81 400.00 L 455.79 400.00 C 455.80 377.67 455.77 355.34 455.80 333.01 M 465.37 343.07 C 465.45 358.69 465.45 374.31 465.37 389.93 C 542.96 390.07 620.55 389.99 698.14 389.97 C 683.52 375.23 668.83 360.55 654.21 345.80 C 652.95 344.73 651.99 342.76 650.06 343.01 C 588.50 343.04 526.93 342.91 465.37 343.07 Z" />
<path fill="#ffffff" opacity="1.00" d=" M 1273.38 336.42 C 1276.47 335.05 1279.40 332.75 1282.96 332.97 C 1369.71 333.04 1456.45 332.97 1543.20 333.01 C 1543.21 355.34 1543.21 377.67 1543.20 400.00 L 1123.72 400.00 C 1112.71 377.96 1101.76 355.89 1090.82 333.82 C 1115.42 333.84 1140.03 333.64 1164.63 333.92 C 1171.94 348.87 1179.56 363.68 1187.03 378.57 C 1215.86 364.63 1244.59 350.46 1273.38 336.42 M 1106.14 343.21 C 1114.16 358.60 1121.69 374.26 1129.31 389.85 C 1264.08 390.16 1398.86 389.99 1533.63 389.93 C 1533.55 374.31 1533.54 358.69 1533.64 343.07 C 1449.76 342.99 1365.86 342.87 1282.00 343.13 C 1252.10 357.37 1222.48 372.25 1192.64 386.62 C 1187.27 389.69 1180.05 386.94 1177.61 381.39 C 1171.18 368.76 1164.72 356.14 1158.57 343.37 C 1141.10 343.34 1123.60 343.66 1106.14 343.21 Z" />
</g>
</svg>
