<?xml version="1.0" encoding="UTF-8" ?>
<!DOCTYPE svg PUBLIC "-//W3C//DTD SVG 1.1//EN" "http://www.w3.org/Graphics/SVG/1.1/DTD/svg11.dtd">
<svg width="1544pt" height="400pt" viewBox="0 0 1544 400" version="1.1" xmlns="http://www.w3.org/2000/svg">
<g id="#ffffffff">
<path fill="#ffffff" opacity="1.00" d=" M 0.00 0.00 L 200.00 0.00 C 199.99 22.33 200.02 44.66 199.98 66.98 C 155.66 67.03 111.34 66.97 67.01 67.02 C 66.98 178.01 67.01 289.01 67.00 400.00 L 0.00 400.00 L 0.00 0.00 Z" />
<path fill="#ffffff" opacity="1.00" d=" M 365.50 0.00 L 432.00 0.00 C 432.00 133.33 432.00 266.67 432.00 400.00 L 365.49 400.00 C 365.48 344.34 365.54 288.67 365.46 233.01 C 298.82 233.00 232.18 232.99 165.54 233.01 C 165.45 288.67 165.54 344.34 165.50 400.00 L 99.00 400.00 C 99.01 344.32 98.98 288.63 99.02 232.95 C 121.07 210.64 143.23 188.44 165.28 166.12 C 232.00 165.83 298.74 166.09 365.46 165.99 C 365.55 110.66 365.46 55.33 365.50 0.00 Z" />
<path fill="#ffffff" opacity="1.00" d=" M 455.50 0.00 L 722.14 0.00 C 699.93 22.22 677.81 44.54 655.72 66.88 C 588.97 67.10 522.21 67.04 455.46 66.91 C 455.54 44.61 455.47 22.30 455.50 0.00 Z" />
<path fill="#ffffff" opacity="1.00" d=" M 1143.00 0.00 L 1540.55 0.00 C 1495.53 22.17 1450.44 44.22 1405.40 66.35 C 1403.42 67.42 1401.11 66.89 1398.99 67.01 C 1313.67 66.97 1228.34 67.03 1143.02 66.98 C 1142.98 44.66 1143.01 22.33 1143.00 0.00 Z" />
<path fill="#ffffff" opacity="1.00" d=" M 797.95 400.00 C 864.67 266.69 931.23 133.31 998.00 0.03 C 1042.57 88.99 1087.05 177.99 1131.50 267.01 C 1106.43 267.01 1081.35 267.28 1056.31 266.88 C 1036.97 227.79 1017.53 188.76 998.00 149.77 C 955.78 233.06 914.55 316.86 872.02 400.00 L 797.95 400.00 Z" />
<path fill="#ffffff" opacity="1.00" d=" M 455.44 167.15 C 544.28 166.81 633.14 167.08 721.99 167.01 C 721.92 189.19 722.18 211.39 721.86 233.56 C 633.08 233.41 544.29 233.56 455.51 233.49 C 455.43 211.37 455.59 189.26 455.44 167.15 Z" />
<path fill="#ffffff" opacity="1.00" d=" M 455.46 333.09 C 522.21 332.96 588.97 332.90 655.71 333.12 C 677.81 355.46 699.93 377.78 722.14 400.00 L 455.49 400.00 C 455.48 377.70 455.54 355.39 455.46 333.09 Z" />
<path fill="#ffffff" opacity="1.00" d=" M 1187.13 378.33 C 1218.14 363.36 1248.95 347.94 1280.02 333.09 C 1368.00 333.04 1456.02 332.72 1544.00 333.25 L 1544.00 400.00 L 1123.48 400.00 C 1112.45 377.86 1101.42 355.72 1090.50 333.53 C 1115.25 333.65 1140.07 333.13 1164.78 333.79 C 1172.08 348.71 1179.68 363.48 1187.13 378.33 Z" />
</g>
</svg>
