<?xml version="1.0" standalone="no"?>
<!DOCTYPE svg PUBLIC "-//W3C//DTD SVG 20010904//EN"
 "http://www.w3.org/TR/2001/REC-SVG-20010904/DTD/svg10.dtd">
<svg version="1.0" xmlns="http://www.w3.org/2000/svg"
 width="700.000000pt" height="700.000000pt" viewBox="0 0 700.000000 700.000000"
 preserveAspectRatio="xMidYMid meet">
<metadata>
Created by potrace 1.11, written by Peter Selinger 2001-2013
</metadata>
<g transform="translate(0.000000,700.000000) scale(0.100000,-0.100000)"
fill="#000000" stroke="none">
<path d="M2 6223 l3 -548 2130 0 2130 0 130 64 c321 157 616 301 800 391 556
271 1275 627 1284 636 2 2 -1454 4 -3237 4 l-3242 0 2 -547z m5778 380 c0 -4
-743 -373 -1292 -641 l-246 -121 -2039 2 -2038 2 -1 370 c0 204 1 375 3 382 3
8 701 11 2809 11 1542 0 2804 -2 2804 -5z"/>
<path d="M5960 6278 c-36 -18 -364 -180 -730 -361 -938 -465 -1322 -653 -1347
-661 -17 -6 -84 -72 -111 -111 -4 -5 -32 -41 -62 -80 -53 -68 -458 -590 -505
-650 -12 -16 -56 -73 -96 -125 -79 -101 -321 -414 -379 -491 -63 -82 -310
-404 -555 -723 -132 -172 -251 -328 -265 -346 -14 -19 -63 -83 -110 -144 -48
-61 -281 -365 -520 -676 -435 -566 -800 -1038 -1113 -1439 -142 -180 -183
-241 -164 -241 5 0 124 59 982 485 407 202 828 410 935 462 278 134 278 134
314 178 42 52 758 977 1039 1343 120 156 239 311 265 345 27 34 153 199 282
367 129 168 267 348 307 400 40 52 82 106 92 120 11 14 90 117 176 230 86 113
164 215 173 227 9 12 55 72 102 133 47 62 146 191 220 288 75 98 279 366 455
597 175 231 322 422 325 425 3 3 39 50 80 105 41 55 121 160 177 234 92 119
109 143 101 140 -2 0 -32 -14 -68 -31z m-930 -1015 c-243 -318 -447 -585 -453
-593 -7 -8 -127 -165 -267 -348 -440 -577 -1314 -1717 -1503 -1962 -100 -129
-264 -343 -366 -475 -102 -132 -216 -280 -255 -329 l-70 -89 -506 -250 c-582
-287 -780 -386 -938 -469 l-113 -59 23 33 c13 18 26 35 29 38 3 3 87 113 186
245 170 227 486 645 538 710 12 17 73 95 134 175 61 80 137 179 169 220 31 41
93 122 138 180 44 58 210 274 370 480 572 741 1032 1337 1125 1460 51 69 97
127 100 130 3 3 25 32 50 65 24 33 46 62 50 65 3 3 48 61 99 130 52 68 99 131
106 140 7 8 64 83 127 165 l114 150 254 127 c140 70 317 157 394 193 304 145
625 309 810 414 50 28 91 47 93 41 2 -5 -195 -269 -438 -587z"/>
<path d="M5172 4803 c-51 -71 -104 -144 -120 -163 -268 -344 -502 -653 -502
-664 0 -8 240 -494 1102 -2233 l109 -221 610 -1 c335 0 609 1 609 2 0 4 -20
45 -122 257 -151 310 -1204 2419 -1332 2665 -74 143 -161 311 -193 372 -32 62
-60 113 -63 113 -3 0 -47 -57 -98 -127z m91 -220 c9 -21 27 -56 40 -78 13 -22
50 -89 82 -150 32 -60 69 -130 83 -155 53 -99 339 -662 472 -930 78 -157 284
-573 459 -925 l318 -640 -36 -8 c-35 -8 -766 -16 -806 -9 -14 2 -37 37 -79
125 -33 67 -167 340 -299 607 -132 267 -316 640 -409 830 -93 190 -209 426
-257 525 -85 172 -88 181 -74 205 33 54 143 202 257 345 65 83 141 183 168
223 27 39 52 72 56 72 4 0 15 -17 25 -37z"/>
<path d="M2688 1321 c-22 -6 -107 -46 -308 -144 -107 -52 -289 -140 -405 -196
-384 -187 -826 -404 -1175 -578 l-345 -172 3273 -1 3272 0 0 548 0 548 -2150
-1 c-1182 0 -2156 -2 -2162 -4z m3578 -161 l570 0 -2 -377 c0 -208 -2 -381 -3
-384 0 -3 -1275 -5 -2831 -5 -1557 0 -2827 3 -2823 7 10 10 606 309 833 418
96 47 290 141 430 210 l255 125 525 3 c289 2 528 5 532 6 5 1 443 1 975 0 533
-1 1225 -2 1539 -3z"/>
</g>
</svg>
